<?xml version="1.0" encoding="utf-8" standalone="no"?>
<!DOCTYPE svg PUBLIC "-//W3C//DTD SVG 1.1//EN"
  "http://www.w3.org/Graphics/SVG/1.1/DTD/svg11.dtd">
<svg xmlns:xlink="http://www.w3.org/1999/xlink" width="1367.924267pt" height="298.2528pt" viewBox="0 0 1367.924267 298.2528" xmlns="http://www.w3.org/2000/svg" version="1.1">
 <metadata>
  <rdf:RDF xmlns:dc="http://purl.org/dc/elements/1.1/" xmlns:cc="http://creativecommons.org/ns#" xmlns:rdf="http://www.w3.org/1999/02/22-rdf-syntax-ns#">
   <cc:Work>
    <dc:type rdf:resource="http://purl.org/dc/dcmitype/StillImage"/>
    <dc:date>2026-02-06T08:39:46.657815</dc:date>
    <dc:format>image/svg+xml</dc:format>
    <dc:creator>
     <cc:Agent>
      <dc:title>Matplotlib v3.10.8, https://matplotlib.org/</dc:title>
     </cc:Agent>
    </dc:creator>
   </cc:Work>
  </rdf:RDF>
 </metadata>
 <defs>
  <style type="text/css">*{stroke-linejoin: round; stroke-linecap: butt}</style>
 </defs>
 <g id="figure_1">
  <g id="patch_1">
   <path d="M 0 298.2528 
L 1367.924267 298.2528 
L 1367.924267 0 
L 0 0 
L 0 298.2528 
z
" style="fill: none; opacity: 0"/>
  </g>
  <g id="axes_1">
   <g id="patch_2">
    <path d="M 32.251136 288.908134 
L 49.732864 288.908134 
Q 65.880934 288.908134 65.880934 272.760064 
L 65.880934 241.761536 
Q 65.880934 225.613466 49.732864 225.613466 
L 32.251136 225.613466 
Q 16.103066 225.613466 16.103066 241.761536 
L 16.103066 272.760064 
Q 16.103066 288.908134 32.251136 288.908134 
z
" clip-path="url(#p677d89b072)" style="fill: #1f2f4a"/>
   </g>
   <g id="patch_3">
    <path d="M 109.296896 288.908134 
L 126.778624 288.908134 
Q 142.926694 288.908134 142.926694 272.760064 
L 142.926694 174.177536 
Q 142.926694 158.029466 126.778624 158.029466 
L 109.296896 158.029466 
Q 93.148826 158.029466 93.148826 174.177536 
L 93.148826 272.760064 
Q 93.148826 288.908134 109.296896 288.908134 
z
" clip-path="url(#p677d89b072)" style="fill: #2f6f9f"/>
   </g>
   <g id="patch_4">
    <path d="M 186.342656 288.908134 
L 203.824384 288.908134 
Q 219.972454 288.908134 219.972454 272.760064 
L 219.972454 214.727936 
Q 219.972454 198.579866 203.824384 198.579866 
L 186.342656 198.579866 
Q 170.194586 198.579866 170.194586 214.727936 
L 170.194586 272.760064 
Q 170.194586 288.908134 186.342656 288.908134 
z
" clip-path="url(#p677d89b072)" style="fill: #1f2f4a"/>
   </g>
   <g id="patch_5">
    <path d="M 262.036736 288.908134 
L 279.518464 288.908134 
Q 295.666534 288.908134 295.666534 272.760064 
L 295.666534 133.627136 
Q 295.666534 117.479066 279.518464 117.479066 
L 262.036736 117.479066 
Q 245.888666 117.479066 245.888666 133.627136 
L 245.888666 272.760064 
Q 245.888666 288.908134 262.036736 288.908134 
z
" clip-path="url(#p677d89b072)" style="fill: #e48400"/>
   </g>
   <g id="line2d_1">
    <path d="M 40.992 189.6768 
L 118.03776 122.0928 
L 195.08352 162.6432 
L 270.7776 81.5424 
" clip-path="url(#p677d89b072)" style="fill: none; stroke: #1f2f4a; stroke-width: 11.946667; stroke-linecap: square"/>
   </g>
   <g id="patch_6">
    <path d="M 40.992 214.00704 
C 47.444455 214.00704 53.633503 211.443452 58.196078 206.880878 
C 62.758652 202.318303 65.32224 196.129255 65.32224 189.6768 
C 65.32224 183.224345 62.758652 177.035297 58.196078 172.472722 
C 53.633503 167.910148 47.444455 165.34656 40.992 165.34656 
C 34.539545 165.34656 28.350497 167.910148 23.787922 172.472722 
C 19.225348 177.035297 16.66176 183.224345 16.66176 189.6768 
C 16.66176 196.129255 19.225348 202.318303 23.787922 206.880878 
C 28.350497 211.443452 34.539545 214.00704 40.992 214.00704 
z
" clip-path="url(#p677d89b072)" style="fill: #1f2f4a; stroke: #1f2f4a; stroke-linejoin: miter"/>
   </g>
   <g id="patch_7">
    <path d="M 118.03776 146.42304 
C 124.490215 146.42304 130.679263 143.859452 135.241838 139.296878 
C 139.804412 134.734303 142.368 128.545255 142.368 122.0928 
C 142.368 115.640345 139.804412 109.451297 135.241838 104.888722 
C 130.679263 100.326148 124.490215 97.76256 118.03776 97.76256 
C 111.585305 97.76256 105.396257 100.326148 100.833682 104.888722 
C 96.271108 109.451297 93.70752 115.640345 93.70752 122.0928 
C 93.70752 128.545255 96.271108 134.734303 100.833682 139.296878 
C 105.396257 143.859452 111.585305 146.42304 118.03776 146.42304 
z
" clip-path="url(#p677d89b072)" style="fill: #1f2f4a; stroke: #1f2f4a; stroke-linejoin: miter"/>
   </g>
   <g id="patch_8">
    <path d="M 195.08352 186.97344 
C 201.535975 186.97344 207.725023 184.409852 212.287598 179.847278 
C 216.850172 175.284703 219.41376 169.095655 219.41376 162.6432 
C 219.41376 156.190745 216.850172 150.001697 212.287598 145.439122 
C 207.725023 140.876548 201.535975 138.31296 195.08352 138.31296 
C 188.631065 138.31296 182.442017 140.876548 177.879442 145.439122 
C 173.316868 150.001697 170.75328 156.190745 170.75328 162.6432 
C 170.75328 169.095655 173.316868 175.284703 177.879442 179.847278 
C 182.442017 184.409852 188.631065 186.97344 195.08352 186.97344 
z
" clip-path="url(#p677d89b072)" style="fill: #1f2f4a; stroke: #1f2f4a; stroke-linejoin: miter"/>
   </g>
   <g id="patch_9">
    <path d="M 270.7776 105.87264 
C 277.230055 105.87264 283.419103 103.309052 287.981678 98.746478 
C 292.544252 94.183903 295.10784 87.994855 295.10784 81.5424 
C 295.10784 75.089945 292.544252 68.900897 287.981678 64.338322 
C 283.419103 59.775748 277.230055 57.21216 270.7776 57.21216 
C 264.325145 57.21216 258.136097 59.775748 253.573522 64.338322 
C 249.010948 68.900897 246.44736 75.089945 246.44736 81.5424 
C 246.44736 87.994855 249.010948 94.183903 253.573522 98.746478 
C 258.136097 103.309052 264.325145 105.87264 270.7776 105.87264 
z
" clip-path="url(#p677d89b072)" style="fill: #e48400; stroke: #e48400; stroke-linejoin: miter"/>
   </g>
   <g id="text_1">
    <!-- pymcdm -->
    <g style="fill: #1f2f4a" transform="translate(304.5696 236.419733) scale(2.218667 -2.218667)">
     <defs>
      <path id="DejaVuSans-Bold-70" d="M 1656 506 
L 1656 -1331 
L 538 -1331 
L 538 3500 
L 1656 3500 
L 1656 2988 
Q 1888 3294 2169 3439 
Q 2450 3584 2816 3584 
Q 3463 3584 3878 3070 
Q 4294 2556 4294 1747 
Q 4294 938 3878 423 
Q 3463 -91 2816 -91 
Q 2450 -91 2169 54 
Q 1888 200 1656 506 
z
M 2400 2772 
Q 2041 2772 1848 2508 
Q 1656 2244 1656 1747 
Q 1656 1250 1848 986 
Q 2041 722 2400 722 
Q 2759 722 2948 984 
Q 3138 1247 3138 1747 
Q 3138 2247 2948 2509 
Q 2759 2772 2400 2772 
z
" transform="scale(0.015625)"/>
      <path id="DejaVuSans-Bold-79" d="M 78 3500 
L 1197 3500 
L 2138 1125 
L 2938 3500 
L 4056 3500 
L 2584 -331 
Q 2363 -916 2067 -1148 
Q 1772 -1381 1288 -1381 
L 641 -1381 
L 641 -647 
L 991 -647 
Q 1275 -647 1404 -556 
Q 1534 -466 1606 -231 
L 1638 -134 
L 78 3500 
z
" transform="scale(0.015625)"/>
      <path id="DejaVuSans-Bold-6d" d="M 3781 2919 
Q 3994 3244 4286 3414 
Q 4578 3584 4928 3584 
Q 5531 3584 5847 3212 
Q 6163 2841 6163 2131 
L 6163 0 
L 5038 0 
L 5038 1825 
Q 5041 1866 5042 1909 
Q 5044 1953 5044 2034 
Q 5044 2406 4934 2573 
Q 4825 2741 4581 2741 
Q 4263 2741 4089 2478 
Q 3916 2216 3909 1719 
L 3909 0 
L 2784 0 
L 2784 1825 
Q 2784 2406 2684 2573 
Q 2584 2741 2328 2741 
Q 2006 2741 1831 2477 
Q 1656 2213 1656 1722 
L 1656 0 
L 531 0 
L 531 3500 
L 1656 3500 
L 1656 2988 
Q 1863 3284 2130 3434 
Q 2397 3584 2719 3584 
Q 3081 3584 3359 3409 
Q 3638 3234 3781 2919 
z
" transform="scale(0.015625)"/>
      <path id="DejaVuSans-Bold-63" d="M 3366 3391 
L 3366 2478 
Q 3138 2634 2908 2709 
Q 2678 2784 2431 2784 
Q 1963 2784 1702 2511 
Q 1441 2238 1441 1747 
Q 1441 1256 1702 982 
Q 1963 709 2431 709 
Q 2694 709 2930 787 
Q 3166 866 3366 1019 
L 3366 103 
Q 3103 6 2833 -42 
Q 2563 -91 2291 -91 
Q 1344 -91 809 395 
Q 275 881 275 1747 
Q 275 2613 809 3098 
Q 1344 3584 2291 3584 
Q 2566 3584 2833 3536 
Q 3100 3488 3366 3391 
z
" transform="scale(0.015625)"/>
      <path id="DejaVuSans-Bold-64" d="M 2919 2988 
L 2919 4863 
L 4044 4863 
L 4044 0 
L 2919 0 
L 2919 506 
Q 2688 197 2409 53 
Q 2131 -91 1766 -91 
Q 1119 -91 703 423 
Q 288 938 288 1747 
Q 288 2556 703 3070 
Q 1119 3584 1766 3584 
Q 2128 3584 2408 3439 
Q 2688 3294 2919 2988 
z
M 2181 722 
Q 2541 722 2730 984 
Q 2919 1247 2919 1747 
Q 2919 2247 2730 2509 
Q 2541 2772 2181 2772 
Q 1825 2772 1636 2509 
Q 1447 2247 1447 1747 
Q 1447 1247 1636 984 
Q 1825 722 2181 722 
z
" transform="scale(0.015625)"/>
     </defs>
     <use xlink:href="#DejaVuSans-Bold-70"/>
     <use xlink:href="#DejaVuSans-Bold-79" transform="translate(71.582031 0)"/>
     <use xlink:href="#DejaVuSans-Bold-6d" transform="translate(136.767578 0)"/>
     <use xlink:href="#DejaVuSans-Bold-63" transform="translate(240.966797 0)"/>
     <use xlink:href="#DejaVuSans-Bold-64" transform="translate(300.244141 0)"/>
     <use xlink:href="#DejaVuSans-Bold-6d" transform="translate(371.826172 0)"/>
    </g>
   </g>
  </g>
 </g>
 <defs>
  <clipPath id="p677d89b072">
   <rect x="7.2" y="7.2" width="290.6112" height="283.8528"/>
  </clipPath>
 </defs>
</svg>
