<?xml version="1.0" encoding="utf-8" standalone="no"?>
<!DOCTYPE svg PUBLIC "-//W3C//DTD SVG 1.1//EN"
  "http://www.w3.org/Graphics/SVG/1.1/DTD/svg11.dtd">
<svg xmlns:xlink="http://www.w3.org/1999/xlink" width="298.2528pt" height="298.2528pt" viewBox="0 0 298.2528 298.2528" xmlns="http://www.w3.org/2000/svg" version="1.1">
 <metadata>
  <rdf:RDF xmlns:dc="http://purl.org/dc/elements/1.1/" xmlns:cc="http://creativecommons.org/ns#" xmlns:rdf="http://www.w3.org/1999/02/22-rdf-syntax-ns#">
   <cc:Work>
    <dc:type rdf:resource="http://purl.org/dc/dcmitype/StillImage"/>
    <dc:date>2026-02-06T08:39:46.636792</dc:date>
    <dc:format>image/svg+xml</dc:format>
    <dc:creator>
     <cc:Agent>
      <dc:title>Matplotlib v3.10.8, https://matplotlib.org/</dc:title>
     </cc:Agent>
    </dc:creator>
   </cc:Work>
  </rdf:RDF>
 </metadata>
 <defs>
  <style type="text/css">*{stroke-linejoin: round; stroke-linecap: butt}</style>
 </defs>
 <g id="figure_1">
  <g id="patch_1">
   <path d="M 0 298.2528 
L 298.2528 298.2528 
L 298.2528 0 
L 0 0 
L 0 298.2528 
z
" style="fill: none; opacity: 0"/>
  </g>
  <g id="axes_1">
   <g id="patch_2">
    <path d="M 25.492736 288.908134 
L 42.974464 288.908134 
Q 59.122534 288.908134 59.122534 272.760064 
L 59.122534 241.761536 
Q 59.122534 225.613466 42.974464 225.613466 
L 25.492736 225.613466 
Q 9.344666 225.613466 9.344666 241.761536 
L 9.344666 272.760064 
Q 9.344666 288.908134 25.492736 288.908134 
z
" clip-path="url(#p80f66d7a33)" style="fill: #1f2f4a"/>
   </g>
   <g id="patch_3">
    <path d="M 102.538496 288.908134 
L 120.020224 288.908134 
Q 136.168294 288.908134 136.168294 272.760064 
L 136.168294 174.177536 
Q 136.168294 158.029466 120.020224 158.029466 
L 102.538496 158.029466 
Q 86.390426 158.029466 86.390426 174.177536 
L 86.390426 272.760064 
Q 86.390426 288.908134 102.538496 288.908134 
z
" clip-path="url(#p80f66d7a33)" style="fill: #2f6f9f"/>
   </g>
   <g id="patch_4">
    <path d="M 179.584256 288.908134 
L 197.065984 288.908134 
Q 213.214054 288.908134 213.214054 272.760064 
L 213.214054 214.727936 
Q 213.214054 198.579866 197.065984 198.579866 
L 179.584256 198.579866 
Q 163.436186 198.579866 163.436186 214.727936 
L 163.436186 272.760064 
Q 163.436186 288.908134 179.584256 288.908134 
z
" clip-path="url(#p80f66d7a33)" style="fill: #1f2f4a"/>
   </g>
   <g id="patch_5">
    <path d="M 255.278336 288.908134 
L 272.760064 288.908134 
Q 288.908134 288.908134 288.908134 272.760064 
L 288.908134 133.627136 
Q 288.908134 117.479066 272.760064 117.479066 
L 255.278336 117.479066 
Q 239.130266 117.479066 239.130266 133.627136 
L 239.130266 272.760064 
Q 239.130266 288.908134 255.278336 288.908134 
z
" clip-path="url(#p80f66d7a33)" style="fill: #e48400"/>
   </g>
   <g id="line2d_1">
    <path d="M 34.2336 189.6768 
L 111.27936 122.0928 
L 188.32512 162.6432 
L 264.0192 81.5424 
" clip-path="url(#p80f66d7a33)" style="fill: none; stroke: #1f2f4a; stroke-width: 11.946667; stroke-linecap: square"/>
   </g>
   <g id="patch_6">
    <path d="M 34.2336 214.00704 
C 40.686055 214.00704 46.875103 211.443452 51.437678 206.880878 
C 56.000252 202.318303 58.56384 196.129255 58.56384 189.6768 
C 58.56384 183.224345 56.000252 177.035297 51.437678 172.472722 
C 46.875103 167.910148 40.686055 165.34656 34.2336 165.34656 
C 27.781145 165.34656 21.592097 167.910148 17.029522 172.472722 
C 12.466948 177.035297 9.90336 183.224345 9.90336 189.6768 
C 9.90336 196.129255 12.466948 202.318303 17.029522 206.880878 
C 21.592097 211.443452 27.781145 214.00704 34.2336 214.00704 
z
" clip-path="url(#p80f66d7a33)" style="fill: #1f2f4a; stroke: #1f2f4a; stroke-linejoin: miter"/>
   </g>
   <g id="patch_7">
    <path d="M 111.27936 146.42304 
C 117.731815 146.42304 123.920863 143.859452 128.483438 139.296878 
C 133.046012 134.734303 135.6096 128.545255 135.6096 122.0928 
C 135.6096 115.640345 133.046012 109.451297 128.483438 104.888722 
C 123.920863 100.326148 117.731815 97.76256 111.27936 97.76256 
C 104.826905 97.76256 98.637857 100.326148 94.075282 104.888722 
C 89.512708 109.451297 86.94912 115.640345 86.94912 122.0928 
C 86.94912 128.545255 89.512708 134.734303 94.075282 139.296878 
C 98.637857 143.859452 104.826905 146.42304 111.27936 146.42304 
z
" clip-path="url(#p80f66d7a33)" style="fill: #1f2f4a; stroke: #1f2f4a; stroke-linejoin: miter"/>
   </g>
   <g id="patch_8">
    <path d="M 188.32512 186.97344 
C 194.777575 186.97344 200.966623 184.409852 205.529198 179.847278 
C 210.091772 175.284703 212.65536 169.095655 212.65536 162.6432 
C 212.65536 156.190745 210.091772 150.001697 205.529198 145.439122 
C 200.966623 140.876548 194.777575 138.31296 188.32512 138.31296 
C 181.872665 138.31296 175.683617 140.876548 171.121042 145.439122 
C 166.558468 150.001697 163.99488 156.190745 163.99488 162.6432 
C 163.99488 169.095655 166.558468 175.284703 171.121042 179.847278 
C 175.683617 184.409852 181.872665 186.97344 188.32512 186.97344 
z
" clip-path="url(#p80f66d7a33)" style="fill: #1f2f4a; stroke: #1f2f4a; stroke-linejoin: miter"/>
   </g>
   <g id="patch_9">
    <path d="M 264.0192 105.87264 
C 270.471655 105.87264 276.660703 103.309052 281.223278 98.746478 
C 285.785852 94.183903 288.34944 87.994855 288.34944 81.5424 
C 288.34944 75.089945 285.785852 68.900897 281.223278 64.338322 
C 276.660703 59.775748 270.471655 57.21216 264.0192 57.21216 
C 257.566745 57.21216 251.377697 59.775748 246.815122 64.338322 
C 242.252548 68.900897 239.68896 75.089945 239.68896 81.5424 
C 239.68896 87.994855 242.252548 94.183903 246.815122 98.746478 
C 251.377697 103.309052 257.566745 105.87264 264.0192 105.87264 
z
" clip-path="url(#p80f66d7a33)" style="fill: #e48400; stroke: #e48400; stroke-linejoin: miter"/>
   </g>
  </g>
 </g>
 <defs>
  <clipPath id="p80f66d7a33">
   <rect x="7.2" y="7.2" width="283.8528" height="283.8528"/>
  </clipPath>
 </defs>
</svg>
